<?xml version="1.0" encoding="UTF-8" standalone="no"?>
<!DOCTYPE svg PUBLIC "-//W3C//DTD SVG 1.1//EN" "http://www.w3.org/Graphics/SVG/1.1/DTD/svg11.dtd">
<svg version="1.1" xmlns="http://www.w3.org/2000/svg" xmlns:xlink="http://www.w3.org/1999/xlink" preserveAspectRatio="xMidYMid meet" viewBox="0 0 1920 2880" width="1920" height="2880"><defs><path d="M226.6 753.02L231.91 750.77L237.24 748.56L242.58 746.41L247.94 744.29L253.32 742.23L258.71 740.21L264.12 738.24L269.55 736.32L274.99 734.44L280.44 732.61L285.91 730.83L291.4 729.1L296.9 727.41L302.41 725.77L307.94 724.18L313.48 722.64L319.03 721.14L324.6 719.69L330.17 718.29L335.76 716.94L341.36 715.64L346.98 714.38L352.6 713.18L358.23 712.02L363.88 710.91L369.53 709.85L375.2 708.83L380.87 707.87L386.55 706.95L392.25 706.09L397.95 705.27L403.66 704.5L409.37 703.78L415.1 703.11L420.83 702.49L426.57 701.92L432.31 701.39L438.06 700.92L439.55 700.8L440.71 700.71L441.58 700.65L442.16 700.6L442.48 700.58L442.54 700.57L442.37 700.58L441.98 700.61L441.39 700.66L440.61 700.72L439.66 700.8L438.56 700.88L437.31 700.98L435.95 701.08L434.48 701.2L432.93 701.32L431.3 701.45L429.61 701.58L427.88 701.71L426.13 701.85L424.37 701.99L422.62 702.12L420.9 702.26L419.21 702.39L417.59 702.52L416.03 702.64L414.57 702.75L413.21 702.86L411.97 702.95L410.87 703.04L409.93 703.11L409.16 703.17L408.57 703.22L408.19 703.25L408.03 703.26L408.1 703.25L408.42 703.23L409.02 703.18L409.9 703.11L411.07 703.02L417.83 702.53L424.59 702.12L431.34 701.79L438.1 701.52L444.85 701.34L451.61 701.23L458.36 701.2L465.11 701.24L471.85 701.35L478.6 701.54L485.33 701.81L492.06 702.15L498.79 702.57L505.51 703.06L512.22 703.62L518.93 704.26L525.62 704.98L532.31 705.77L538.99 706.63L545.65 707.57L552.31 708.58L558.96 709.67L565.59 710.83L572.21 712.06L578.82 713.37L585.41 714.75L591.99 716.21L598.55 717.73L605.1 719.34L611.63 721.01L618.14 722.76L624.64 724.58L631.12 726.48L637.57 728.44L644.01 730.48L650.43 732.6L656.83 734.78L663.21 737.04L669.56 739.37L675.89 741.77L678.32 742.71L680.57 743.58L682.66 744.38L684.58 745.13L686.36 745.81L688 746.45L689.51 747.03L690.9 747.57L692.19 748.06L693.37 748.52L694.46 748.94L695.47 749.33L696.41 749.69L697.28 750.03L698.11 750.35L698.89 750.65L699.64 750.94L700.36 751.22L701.07 751.49L701.78 751.76L702.49 752.04L703.22 752.32L703.97 752.61L704.75 752.91L705.58 753.23L706.46 753.57L707.41 753.94L708.42 754.33L709.52 754.75L710.71 755.21L712 755.71L713.4 756.25L714.92 756.84L716.58 757.48L718.37 758.17L720.31 758.92L722.4 759.73L724.67 760.6L727.11 761.54L729.75 762.56L730.16 762.74L731.37 763.27L733.34 764.13L736.02 765.3L739.37 766.77L743.35 768.52L747.92 770.52L753.03 772.76L758.65 775.22L764.73 777.88L771.23 780.73L778.11 783.74L785.33 786.9L792.83 790.19L800.59 793.59L808.56 797.08L816.7 800.64L824.97 804.26L833.31 807.92L841.7 811.59L850.09 815.26L858.44 818.92L866.71 822.54L874.84 826.1L882.81 829.59L890.57 832.99L898.08 836.28L905.3 839.44L912.18 842.45L918.68 845.3L924.76 847.96L930.38 850.42L935.49 852.66L940.06 854.66L944.04 856.41L947.39 857.88L950.07 859.05L952.04 859.91L953.25 860.44L953.66 860.62L954.58 861.07L955.55 861.55L956.6 862.07L957.71 862.61L958.89 863.19L960.13 863.8L961.44 864.45L962.81 865.12L964.25 865.83L965.76 866.57L967.33 867.35L968.97 868.15L970.67 868.99L972.44 869.86L974.28 870.76L976.18 871.7L978.15 872.67L980.18 873.67L982.28 874.7L984.45 875.77L986.68 876.87L988.98 878L991.34 879.16L993.77 880.35L996.27 881.58L998.83 882.84L1001.46 884.14L1004.15 885.46L1006.91 886.82L1009.74 888.21L1012.63 889.63L1015.59 891.09L1018.61 892.57L1021.7 894.09L1024.86 895.65L1028.08 897.23L1031.36 898.85L1034.72 900.5L1038.14 902.18L1041.62 903.9L1045.95 905.64L1050.19 907.35L1054.35 909.02L1058.43 910.67L1062.43 912.28L1066.34 913.85L1070.18 915.4L1073.93 916.91L1077.6 918.39L1081.19 919.83L1084.69 921.24L1088.12 922.62L1091.46 923.97L1094.72 925.28L1097.9 926.56L1101 927.81L1104.01 929.02L1106.94 930.2L1109.8 931.35L1112.56 932.47L1115.25 933.55L1117.86 934.6L1120.38 935.62L1122.82 936.6L1125.18 937.55L1127.46 938.47L1129.66 939.35L1131.77 940.2L1133.81 941.02L1135.76 941.81L1137.63 942.56L1139.41 943.28L1141.12 943.97L1142.74 944.62L1144.28 945.24L1145.74 945.83L1147.12 946.39L1148.42 946.91L1149.63 947.4L1150.76 947.85L1154.73 949.43L1158.71 950.99L1162.7 952.51L1166.7 954.01L1170.7 955.48L1174.72 956.93L1178.74 958.34L1182.78 959.73L1186.82 961.08L1190.88 962.41L1194.94 963.72L1199.01 964.99L1203.08 966.23L1207.17 967.45L1211.26 968.64L1215.36 969.8L1219.47 970.93L1223.59 972.03L1227.72 973.11L1231.85 974.15L1235.99 975.17L1240.13 976.16L1244.29 977.12L1248.44 978.05L1252.61 978.95L1256.78 979.83L1260.96 980.67L1265.15 981.49L1269.34 982.27L1273.53 983.03L1277.74 983.76L1281.94 984.46L1286.16 985.13L1290.37 985.77L1294.6 986.39L1298.83 986.97L1303.06 987.53L1307.3 988.05L1311.54 988.55L1315.78 989.01L1318.45 989.3L1320.79 989.55L1322.81 989.76L1324.53 989.94L1325.96 990.1L1327.13 990.22L1328.04 990.32L1328.72 990.39L1329.17 990.44L1329.41 990.46L1329.46 990.47L1329.33 990.46L1329.04 990.42L1328.61 990.38L1328.04 990.32L1327.36 990.25L1326.58 990.16L1325.72 990.07L1324.78 989.97L1323.79 989.87L1322.76 989.76L1321.71 989.64L1320.65 989.53L1319.6 989.42L1318.57 989.31L1317.58 989.2L1316.64 989.1L1315.77 989.01L1314.99 988.93L1314.3 988.86L1313.73 988.8L1313.29 988.75L1313 988.72L1312.87 988.7L1312.91 988.71L1313.15 988.73L1313.59 988.78L1314.25 988.85L1315.16 988.95L1316.31 989.07L1325.7 990.03L1335.09 990.93L1344.48 991.76L1353.87 992.52L1363.27 993.21L1372.67 993.84L1382.08 994.4L1391.48 994.89L1400.89 995.31L1410.3 995.66L1419.71 995.95L1429.12 996.16L1438.54 996.32L1447.95 996.4L1457.36 996.41L1466.77 996.36L1476.18 996.24L1485.59 996.05L1494.99 995.8L1504.4 995.47L1513.8 995.08L1523.2 994.62L1532.59 994.1L1541.98 993.5L1551.37 992.84L1560.75 992.11L1570.13 991.32L1579.51 990.45L1588.87 989.52L1598.24 988.52L1607.59 987.46L1616.94 986.32L1626.28 985.12L1635.62 983.85L1644.94 982.52L1654.26 981.11L1663.57 979.64L1672.88 978.1L1682.17 976.5L1691.45 974.82L1693.82 974.39L1696.37 973.92L1699.08 973.42L1701.96 972.89L1705.02 972.33L1708.25 971.73L1711.65 971.11L1715.22 970.45L1718.96 969.76L1722.88 969.04L1726.96 968.29L1731.22 967.51L1735.65 966.69L1740.25 965.85L1745.02 964.97L1749.96 964.06L1755.07 963.12L1760.36 962.15L1765.82 961.14L1771.44 960.11L1777.24 959.04L1783.21 957.94L1789.36 956.81L1795.67 955.65L1802.15 954.46L1808.81 953.23L1815.64 951.98L1822.64 950.69L1829.81 949.37L1837.15 948.02L1844.66 946.64L1852.35 945.22L1860.21 943.78L1868.23 942.3L1876.43 940.79L1884.8 939.25L1893.35 937.68L1902.06 936.08L1910.94 934.44L1920 932.78L1920 0L0 0L0 926.5L4.95 920.77L9.97 915.11L15.04 909.5L20.17 903.95L25.36 898.46L30.61 893.03L35.91 887.66L41.27 882.36L46.69 877.11L52.16 871.93L57.69 866.8L63.28 861.74L68.91 856.75L74.6 851.81L80.35 846.94L86.14 842.14L91.99 837.4L97.89 832.72L103.84 828.11L109.84 823.56L115.88 819.09L121.98 814.67L128.13 810.33L134.32 806.05L140.56 801.84L146.85 797.7L153.19 793.63L159.57 789.62L165.99 785.69L172.46 781.82L178.98 778.03L185.54 774.3L192.14 770.65L198.78 767.07L205.46 763.56L212.19 760.12L218.96 756.76L225.77 753.47L232.61 750.25L239.5 747.11L240.59 746.62L241.4 746.25L241.94 746.01L242.23 745.88L242.28 745.86L242.11 745.93L241.74 746.1L241.17 746.36L240.43 746.69L239.53 747.09L238.49 747.56L237.32 748.09L236.04 748.67L234.66 749.29L233.2 749.94L231.68 750.63L230.1 751.34L228.49 752.06L226.87 752.79L225.24 753.52L223.62 754.25L222.03 754.97L220.49 755.66L219 756.33L217.59 756.96L216.27 757.56L215.06 758.1L213.96 758.59L213.01 759.02L212.21 759.38L211.57 759.67L211.13 759.87L210.88 759.98L210.84 760L211.04 759.91L211.48 759.71L212.19 759.39L213.17 758.95L214.45 758.38L216.04 757.66L221.31 755.32L221.31 755.32L226.6 753.02Z" id="cNZCnnfPh"></path><linearGradient id="gradientj5kj1j4NNU" gradientUnits="userSpaceOnUse" x1="990" y1="1034.86" x2="990" y2="0"><stop style="stop-color: #a49def;stop-opacity: 1" offset="0%"></stop><stop style="stop-color: #434160;stop-opacity: 1" offset="100%"></stop></linearGradient><path d="M-9.27 1012.48L1927.04 1001.2L1921.45 759.64C1882.43 748.32 1858.05 741.24 1848.29 738.41C1757.45 712.05 1663.75 696.76 1569.24 692.87C1521.41 690.9 1542.3 691.76 1499.99 690.02C1388.23 685.41 1276.91 706.69 1174.72 752.19C1160.06 758.72 1173.73 752.63 1134.64 770.03C1134.64 770.03 1066.78 796.05 1066.78 796.05C1014.06 813.12 983.82 822.92 954.43 832.44C854.77 864.72 749.32 875.11 645.28 862.89C629 860.97 663.74 865.05 628.87 860.96C586.32 855.96 545.82 839.86 511.46 814.26C488.3 797.02 507.32 811.18 493.17 800.65C429.57 753.28 353.48 725.6 274.3 721.04C268.3 720.7 288.48 721.86 261.68 720.32C250.09 719.65 238.46 719.99 226.93 721.34C199.8 724.52 196.38 724.92 184.41 726.32C123.22 733.48 64.65 755.22 13.62 789.72C9.05 792.81 23.87 782.79 7.02 794.19C-3.17 801.07 -9.27 812.56 -9.27 824.85C-9.27 849.87 -9.27 912.41 -9.27 1012.48Z" id="bjykjG4FM"></path><path d="M-3.28 1113.56L1926.31 1113.56C1925.47 1112.35 1924.95 1111.59 1924.74 1111.29C1898.52 1073.31 1879.45 1030.87 1868.47 986.05C1866.81 979.25 1871.66 999.07 1868.31 985.38C1863.05 963.89 1850.12 945.07 1831.95 932.44C1801.37 911.18 1805.61 914.12 1791.97 904.65C1717.57 852.93 1632.91 817.8 1543.75 801.64C1510.74 795.66 1530.97 799.32 1493.95 792.61C1417.98 778.85 1339.95 781.47 1265.07 800.3C1250.35 804 1270.47 798.94 1243.42 805.75C1243.42 805.75 1140.42 835.16 1140.42 835.16C1105.23 846.43 1098.99 848.43 1075.88 855.83C1001.83 879.55 925.45 895.3 848.06 902.81C809.93 906.51 841.31 903.46 810.52 906.45C709.13 916.3 606.82 909.35 507.7 885.9C493.84 882.62 517.23 888.15 482.18 879.86C453.55 873.08 427.36 858.47 406.56 837.67C378.62 809.73 387.22 818.33 374.43 805.54C305.36 736.46 212.45 696.46 114.79 693.76C99.05 693.33 59.69 692.24 -3.28 690.5L-3.28 1113.56Z" id="m2Eq1WWunq"></path><path d="M-103.16 1001.28C-103.16 1001.28 -103.16 1001.28 -103.16 1001.28C2.55 978.29 105.83 945.26 205.26 902.65C211.13 900.13 225.82 893.84 249.31 883.77C249.31 883.77 249.31 883.77 249.31 883.77C374.68 821.03 507.2 773.73 643.97 742.91C649.82 741.59 602.79 752.19 643.97 742.91C643.97 742.91 703.11 733.24 703.11 733.24C734.29 730.04 698.16 733.75 704.38 733.11C806.61 722.6 909.89 730.83 1009.16 757.4C1022.68 761.01 983.88 750.63 1015.1 758.99C1055.99 769.93 1095.15 786.55 1131.42 808.36C1151.91 820.68 1133.09 809.36 1147.18 817.83C1204.69 852.4 1257.02 894.93 1302.62 944.15C1315.11 957.63 1308.25 950.23 1326.85 970.3C1326.85 970.3 1408.23 1047.74 1408.23 1047.74C1422.97 1060.11 1400.57 1041.32 1409.44 1048.76C1456.88 1088.53 1514.33 1114.51 1575.53 1123.84C1608.28 1128.84 1690.16 1141.33 1821.17 1161.32L-103.16 1161.32L-103.16 1001.28Z" id="h17WsdRK0k"></path><path d="M2011.25 1079.01L1697.39 1136.87L950.89 970.98C950.89 970.98 950.89 970.98 950.89 970.98C1069.57 992.28 1191.26 990.34 1309.2 965.26C1323.32 962.26 1295.37 968.2 1336.57 959.44C1365.21 953.35 1392.62 942.49 1417.66 927.32C1446.36 909.92 1518.1 866.44 1632.88 796.88C1670.02 774.2 1693.23 760.03 1702.51 754.36C1790.6 700.59 1887.32 662.44 1988.4 641.6C1991.44 640.98 1999.06 639.41 2011.25 636.89L2011.25 1079.01Z" id="a8ekT6jmu"></path><path d="M0 926.5L4.95 920.77L9.97 915.11L15.04 909.5L20.17 903.95L25.36 898.46L30.61 893.03L35.91 887.66L41.27 882.36L46.69 877.11L52.16 871.93L57.69 866.8L63.28 861.74L68.91 856.75L74.6 851.81L80.35 846.94L86.14 842.14L91.99 837.4L97.89 832.72L103.84 828.11L109.84 823.56L115.88 819.09L121.98 814.67L128.13 810.33L134.32 806.05L140.56 801.84L146.85 797.7L153.19 793.63L159.57 789.62L165.99 785.69L172.46 781.82L178.98 778.03L185.54 774.3L192.14 770.65L198.78 767.07L205.46 763.56L212.19 760.12L218.96 756.76L225.77 753.47L227.85 752.49L231.91 750.77L237.24 748.56L242.58 746.41L247.94 744.29L253.32 742.23L258.71 740.21L264.12 738.24L269.55 736.32L274.99 734.44L280.44 732.61L285.91 730.83L291.4 729.1L296.9 727.41L302.41 725.77L307.94 724.18L313.48 722.64L319.03 721.14L324.6 719.69L330.17 718.29L335.76 716.94L341.36 715.64L346.98 714.38L352.6 713.18L358.23 712.02L363.88 710.91L369.53 709.85L375.2 708.83L380.87 707.87L386.55 706.95L392.25 706.09L397.95 705.27L403.66 704.5L409.37 703.78L415.1 703.11L420.83 702.49L424.36 702.14L424.59 702.12L431.34 701.79L438.1 701.52L444.85 701.34L451.61 701.23L458.36 701.2L465.11 701.24L471.85 701.35L478.6 701.54L485.33 701.81L492.06 702.15L498.79 702.57L505.51 703.06L512.22 703.62L518.93 704.26L525.62 704.98L532.31 705.77L538.99 706.63L545.65 707.57L552.31 708.58L558.96 709.67L565.59 710.83L572.21 712.06L578.82 713.37L585.41 714.75L591.99 716.21L598.55 717.73L605.1 719.34L611.63 721.01L618.14 722.76L624.64 724.58L631.12 726.48L637.57 728.44L644.01 730.48L650.43 732.6L656.83 734.78L663.21 737.04L669.56 739.37L675.89 741.77L729.75 762.56L953.66 860.62L1041.62 903.9L1150.76 947.85L1154.73 949.43L1158.71 950.99L1162.7 952.51L1166.7 954.01L1170.7 955.48L1174.72 956.93L1178.74 958.34L1182.78 959.73L1186.82 961.08L1190.88 962.41L1194.94 963.72L1199.01 964.99L1203.08 966.23L1207.17 967.45L1211.26 968.64L1215.36 969.8L1219.47 970.93L1223.59 972.03L1227.72 973.11L1231.85 974.15L1235.99 975.17L1240.13 976.16L1244.29 977.12L1248.44 978.05L1252.61 978.95L1256.78 979.83L1260.96 980.67L1265.15 981.49L1269.34 982.27L1273.53 983.03L1277.74 983.76L1281.94 984.46L1286.16 985.13L1290.37 985.77L1294.6 986.39L1298.83 986.97L1303.06 987.53L1307.3 988.05L1311.54 988.55L1315.78 989.01L1316.31 989.07L1325.7 990.03L1335.09 990.93L1344.48 991.76L1353.87 992.52L1363.27 993.21L1372.67 993.84L1382.08 994.4L1391.48 994.89L1400.89 995.31L1410.3 995.66L1419.71 995.95L1429.12 996.16L1438.54 996.32L1447.95 996.4L1457.36 996.41L1466.77 996.36L1476.18 996.24L1485.59 996.05L1494.99 995.8L1504.4 995.47L1513.8 995.08L1523.2 994.62L1532.59 994.1L1541.98 993.5L1551.37 992.84L1560.75 992.11L1570.13 991.32L1579.51 990.45L1588.87 989.52L1598.24 988.52L1607.59 987.46L1616.94 986.32L1626.28 985.12L1635.62 983.85L1644.94 982.52L1654.26 981.11L1663.57 979.64L1672.88 978.1L1682.17 976.5L1691.45 974.82L1920 932.78L1920 2880L0 2880L0 926.5ZM227.85 752.49L226.6 753.02L221.31 755.32L216.04 757.66L239.5 747.11L232.61 750.25L227.85 752.49ZM426.57 701.92L424.36 702.14L417.83 702.53L411.07 703.02L438.06 700.92L432.31 701.39L426.57 701.92Z" id="k80YFGf8E"></path><path d="M1411.55 338.25L1357.53 456.44L1406.48 458.5L1367.86 543.87L1505.78 429.22L1435.86 426.27L1488.46 341.49L1411.55 338.25Z" id="b22qipQKqw"></path><path d="M508.36 572.82L552.01 599.05L537.38 623.53L493.72 597.3L467.58 641.01L443.14 626.33L469.27 582.62L425.62 556.39L440.25 531.91L483.91 558.14L510.05 514.43L534.49 529.11L508.36 572.82Z" id="b4GBxgAnC"></path><path d="M878.56 346.61L921.97 380.59L868.39 394.91L849.24 447.33L819.72 400.6L764.47 399.03L799.81 355.83L784.81 302.44L836.18 322.46L882.15 291.04L878.56 346.61Z" id="e11ZL1w2JN"></path><path d="M1064.08 531.9L1065.81 531.85L1067.53 531.87L1069.23 531.94L1070.92 532.09L1072.59 532.29L1074.24 532.56L1075.87 532.88L1077.48 533.27L1079.06 533.71L1080.62 534.21L1082.15 534.76L1083.66 535.37L1085.14 536.03L1086.58 536.75L1087.99 537.51L1089.37 538.33L1090.71 539.19L1092.02 540.1L1093.28 541.06L1094.51 542.06L1095.69 543.11L1096.83 544.21L1097.93 545.34L1098.98 546.51L1099.98 547.73L1100.93 548.98L1101.83 550.28L1102.68 551.6L1103.48 552.97L1104.22 554.37L1104.9 555.8L1105.52 557.26L1106.09 558.76L1106.59 560.28L1107.03 561.84L1107.4 563.42L1107.71 565.03L1107.95 566.66L1108.12 568.31L1108.22 569.95L1108.25 571.58L1108.21 573.22L1108.1 574.85L1107.93 576.49L1107.69 578.13L1107.39 579.77L1107.04 581.42L1106.62 583.08L1106.15 584.75L1105.62 586.43L1105.03 588.13L1104.4 589.84L1103.71 591.57L1102.98 593.31L1102.19 595.08L1101.36 596.87L1100.49 598.68L1099.57 600.52L1098.62 602.38L1097.62 604.28L1096.58 606.2L1095.51 608.16L1094.41 610.15L1093.27 612.17L1092.09 614.23L1090.89 616.34L1089.66 618.48L1088.41 620.66L1087.13 622.89L1085.82 625.17L1084.49 627.49L1083.14 629.86L1081.78 632.28L1080.39 634.75L1078.99 637.28L1077.58 639.87L1076.15 642.51L1074.72 645.21L1072.66 642.95L1070.63 640.74L1068.62 638.58L1066.64 636.48L1064.69 634.42L1062.77 632.41L1060.88 630.44L1059.02 628.52L1057.2 626.64L1055.4 624.79L1053.65 622.98L1051.93 621.21L1050.25 619.47L1048.6 617.76L1047 616.08L1045.44 614.42L1043.92 612.79L1042.44 611.18L1041.01 609.59L1039.62 608.02L1038.28 606.46L1036.99 604.92L1035.74 603.39L1034.55 601.87L1033.41 600.36L1032.31 598.85L1031.28 597.35L1030.29 595.85L1029.37 594.35L1028.5 592.85L1027.68 591.35L1026.93 589.83L1026.24 588.31L1025.61 586.78L1025.04 585.24L1024.53 583.68L1024.09 582.11L1023.71 580.52L1023.4 578.9L1023.16 577.27L1022.99 575.63L1022.9 573.99L1022.87 572.36L1022.91 570.75L1023.02 569.15L1023.2 567.56L1023.44 565.99L1023.75 564.43L1024.13 562.89L1024.56 561.38L1025.06 559.88L1025.61 558.4L1026.22 556.95L1026.9 555.53L1027.62 554.13L1028.41 552.76L1029.24 551.42L1030.13 550.12L1031.07 548.84L1032.06 547.6L1033.1 546.4L1034.19 545.23L1035.33 544.1L1036.51 543.01L1037.73 541.96L1039 540.96L1040.31 540L1041.66 539.08L1043.05 538.21L1044.47 537.39L1045.94 536.63L1047.44 535.91L1048.97 535.24L1050.54 534.64L1052.14 534.08L1053.77 533.59L1055.43 533.15L1057.12 532.77L1058.84 532.46L1060.58 532.21L1062.34 532.02L1064.08 531.9ZM1061.3 551.31L1060.5 551.49L1059.71 551.69L1058.94 551.93L1058.18 552.19L1057.44 552.48L1056.71 552.79L1056 553.13L1055.31 553.5L1054.63 553.89L1053.97 554.3L1053.33 554.73L1052.71 555.18L1052.11 555.66L1051.53 556.16L1050.98 556.67L1050.44 557.21L1049.92 557.76L1049.43 558.33L1048.96 558.92L1048.52 559.52L1048.09 560.14L1047.7 560.78L1047.33 561.43L1046.98 562.09L1046.66 562.76L1046.37 563.45L1046.11 564.15L1045.88 564.86L1045.67 565.58L1045.49 566.3L1045.35 567.04L1045.23 567.79L1045.15 568.54L1045.1 569.3L1045.07 570.06L1045.09 570.83L1045.13 571.61L1045.21 572.39L1045.33 573.16L1045.47 573.92L1045.65 574.67L1045.86 575.41L1046.1 576.13L1046.36 576.84L1046.66 577.53L1046.98 578.21L1047.33 578.87L1047.71 579.52L1048.11 580.15L1048.54 580.76L1048.99 581.35L1049.46 581.93L1049.96 582.49L1050.48 583.02L1051.02 583.54L1051.58 584.04L1052.16 584.51L1052.76 584.97L1053.38 585.4L1054.02 585.81L1054.67 586.19L1055.34 586.56L1056.02 586.9L1056.72 587.21L1057.43 587.5L1058.16 587.76L1058.9 588L1059.65 588.21L1060.41 588.39L1061.18 588.54L1061.97 588.67L1062.76 588.76L1063.56 588.83L1064.36 588.87L1065.18 588.88L1066 588.85L1066.82 588.8L1067.65 588.71L1068.48 588.59L1069.29 588.44L1070.09 588.26L1070.88 588.05L1071.65 587.82L1072.41 587.56L1073.15 587.27L1073.88 586.95L1074.59 586.61L1075.28 586.25L1075.96 585.86L1076.62 585.45L1077.26 585.02L1077.88 584.56L1078.48 584.09L1079.06 583.59L1079.61 583.07L1080.15 582.54L1080.67 581.99L1081.16 581.42L1081.63 580.83L1082.08 580.22L1082.5 579.6L1082.89 578.97L1083.26 578.32L1083.61 577.66L1083.93 576.98L1084.22 576.3L1084.48 575.6L1084.72 574.89L1084.92 574.17L1085.1 573.44L1085.24 572.71L1085.36 571.96L1085.44 571.21L1085.5 570.45L1085.52 569.69L1085.5 568.91L1085.46 568.14L1085.38 567.36L1085.26 566.59L1085.12 565.83L1084.94 565.08L1084.73 564.34L1084.49 563.62L1084.23 562.91L1083.93 562.22L1083.61 561.54L1083.26 560.87L1082.88 560.23L1082.48 559.6L1082.05 558.99L1081.6 558.39L1081.13 557.82L1080.63 557.26L1080.11 556.72L1079.57 556.21L1079.01 555.71L1078.43 555.23L1077.83 554.78L1077.21 554.35L1076.58 553.94L1075.92 553.55L1075.25 553.19L1074.57 552.85L1073.87 552.54L1073.16 552.25L1072.43 551.99L1071.69 551.75L1070.94 551.54L1070.18 551.36L1069.41 551.21L1068.62 551.08L1067.83 550.98L1067.03 550.92L1066.23 550.88L1065.41 550.87L1064.59 550.9L1063.77 550.95L1062.94 551.04L1062.11 551.16L1061.3 551.31Z" id="fcsQEcaP2"></path></defs><g><g><g><use xlink:href="#cNZCnnfPh" opacity="1" fill="url(#gradientj5kj1j4NNU)"></use><g><use xlink:href="#cNZCnnfPh" opacity="1" fill-opacity="0" stroke="#000000" stroke-width="0" stroke-opacity="1"></use></g></g><g><use xlink:href="#bjykjG4FM" opacity="1" fill="#ffffff" fill-opacity="0.13"></use><g><use xlink:href="#bjykjG4FM" opacity="1" fill-opacity="0" stroke="#000000" stroke-width="0" stroke-opacity="1"></use></g></g><g><use xlink:href="#m2Eq1WWunq" opacity="1" fill="#ffffff" fill-opacity="0.1"></use><g><use xlink:href="#m2Eq1WWunq" opacity="1" fill-opacity="0" stroke="#000000" stroke-width="0" stroke-opacity="1"></use></g></g><g><use xlink:href="#h17WsdRK0k" opacity="1" fill="#ffffff" fill-opacity="0.15"></use><g><use xlink:href="#h17WsdRK0k" opacity="1" fill-opacity="0" stroke="#000000" stroke-width="0" stroke-opacity="1"></use></g></g><g><use xlink:href="#a8ekT6jmu" opacity="1" fill="#ffffff" fill-opacity="0.16"></use><g><use xlink:href="#a8ekT6jmu" opacity="1" fill-opacity="0" stroke="#000000" stroke-width="0" stroke-opacity="1"></use></g></g><g><use xlink:href="#k80YFGf8E" opacity="1" fill="#fff3f3" fill-opacity="1"></use></g><g><use xlink:href="#b22qipQKqw" opacity="1" fill="#ffffff" fill-opacity="0.75"></use></g><g><use xlink:href="#b4GBxgAnC" opacity="1" fill="#ffffff" fill-opacity="0.75"></use></g><g><use xlink:href="#e11ZL1w2JN" opacity="1" fill="#ffffff" fill-opacity="0.75"></use></g><g><use xlink:href="#fcsQEcaP2" opacity="1" fill="#ffffff" fill-opacity="0.75"></use></g></g></g></svg>